<svg xmlns="http://www.w3.org/2000/svg" viewBox="0 0 180 180" fill="none">
  <rect width="180" height="180" rx="40" fill="#09090B"/>
  <path d="M46 41h88a13.5 13.5 0 0 1 13.5 13.5V68H32.5V54.5A13.5 13.5 0 0 1 46 41Z" fill="url(#handle)"/>
  <rect x="34" y="76" width="112" height="74" rx="18" fill="#0E0E10" stroke="#52525B" stroke-width="3.5"/>
  <path fill="none" stroke="#E4E4E7" stroke-width="4.5" stroke-linecap="round" stroke-linejoin="round" d="M64 100c-5.2 0-8.3 3.8-8.3 8.3v5.9c0 4.5 3.1 8.3 8.3 8.3M116 100c5.2 0 8.3 3.8 8.3 8.3v5.9c0 4.5-3.1 8.3-8.3 8.3"/>
  <path stroke="#FAFAFA" stroke-width="3.8" stroke-linecap="round" d="M83 115.5h14"/>
  <circle cx="90" cy="95.5" r="3.8" fill="#FAFAFA"/>
  <defs>
    <linearGradient id="handle" x1="32.5" y1="41" x2="147.5" y2="68" gradientUnits="userSpaceOnUse">
      <stop stop-color="#52525B"/>
      <stop offset="1" stop-color="#D4D4D8"/>
    </linearGradient>
  </defs>
</svg>
