<svg xmlns="http://www.w3.org/2000/svg" viewBox="0 0 180 180" fill="none" role="img" aria-label="???">
  <rect width="180" height="180" rx="40" fill="#0C141D"/>
  <path d="M52 50h76a14 14 0 0 1 14 14v12H38V64a14 14 0 0 1 14-14Z" fill="url(#handle)"/>
  <rect x="34" y="76" width="112" height="74" rx="18" fill="#101A26" stroke="#4A8FE7" stroke-width="3.5"/>
  <path fill="none" stroke="#5C9DFF" stroke-width="4.5" stroke-linecap="round" stroke-linejoin="round" d="M64 100c-5.2 0-8.3 3.8-8.3 8.3v5.9c0 4.5 3.1 8.3 8.3 8.3M116 100c5.2 0 8.3 3.8 8.3 8.3v5.9c0 4.5-3.1 8.3-8.3 8.3"/>
  <path stroke="#38BDF8" stroke-width="3.8" stroke-linecap="round" d="M83 115.5h14"/>
  <circle cx="90" cy="95.5" r="3.8" fill="#3D8BFD"/>
  <defs>
    <linearGradient id="handle" x1="38" y1="50" x2="142" y2="76" gradientUnits="userSpaceOnUse">
      <stop stop-color="#2563EB"/>
      <stop offset="1" stop-color="#38BDF8"/>
    </linearGradient>
  </defs>
</svg>
